<mxfile host="app.diagrams.net" modified="2023-09-25T22:07:49.414Z" agent="Mozilla/5.0 (Windows NT 10.0; Win64; x64; rv:109.0) Gecko/20100101 Firefox/117.0" etag="ZdqvbTHWI9J7LuNi3pp8" version="21.8.1" type="device">
  <diagram name="Pagina-1" id="uISSEu5XN-nP_gT7Fkub">
    <mxGraphModel dx="472" dy="855" grid="1" gridSize="10" guides="1" tooltips="1" connect="1" arrows="1" fold="1" page="1" pageScale="1" pageWidth="827" pageHeight="1169" math="0" shadow="0">
      <root>
        <mxCell id="0" />
        <mxCell id="1" parent="0" />
        <mxCell id="IwvSkkofRuMbl7YpwzWf-52" style="rounded=0;orthogonalLoop=1;jettySize=auto;html=1;" parent="1" source="IwvSkkofRuMbl7YpwzWf-47" target="IwvSkkofRuMbl7YpwzWf-48" edge="1">
          <mxGeometry relative="1" as="geometry" />
        </mxCell>
        <mxCell id="IwvSkkofRuMbl7YpwzWf-63" value="shuffle_a" style="edgeLabel;html=1;align=center;verticalAlign=middle;resizable=0;points=[];" parent="IwvSkkofRuMbl7YpwzWf-52" vertex="1" connectable="0">
          <mxGeometry x="0.1417" y="4" relative="1" as="geometry">
            <mxPoint x="-24" y="-11" as="offset" />
          </mxGeometry>
        </mxCell>
        <mxCell id="IwvSkkofRuMbl7YpwzWf-53" style="rounded=0;orthogonalLoop=1;jettySize=auto;html=1;" parent="1" source="IwvSkkofRuMbl7YpwzWf-47" target="IwvSkkofRuMbl7YpwzWf-50" edge="1">
          <mxGeometry relative="1" as="geometry" />
        </mxCell>
        <mxCell id="IwvSkkofRuMbl7YpwzWf-54" style="rounded=0;orthogonalLoop=1;jettySize=auto;html=1;" parent="1" source="IwvSkkofRuMbl7YpwzWf-47" target="IwvSkkofRuMbl7YpwzWf-51" edge="1">
          <mxGeometry relative="1" as="geometry" />
        </mxCell>
        <mxCell id="IwvSkkofRuMbl7YpwzWf-70" value="sequence_a" style="edgeLabel;html=1;align=center;verticalAlign=middle;resizable=0;points=[];" parent="IwvSkkofRuMbl7YpwzWf-54" vertex="1" connectable="0">
          <mxGeometry x="0.445" y="-1" relative="1" as="geometry">
            <mxPoint x="-40" y="2" as="offset" />
          </mxGeometry>
        </mxCell>
        <mxCell id="IwvSkkofRuMbl7YpwzWf-56" style="edgeStyle=orthogonalEdgeStyle;rounded=0;orthogonalLoop=1;jettySize=auto;html=1;" parent="1" source="IwvSkkofRuMbl7YpwzWf-47" target="IwvSkkofRuMbl7YpwzWf-55" edge="1">
          <mxGeometry relative="1" as="geometry" />
        </mxCell>
        <mxCell id="IwvSkkofRuMbl7YpwzWf-67" value="choice_a, choice_b, send" style="edgeLabel;html=1;align=center;verticalAlign=middle;resizable=0;points=[];" parent="IwvSkkofRuMbl7YpwzWf-56" vertex="1" connectable="0">
          <mxGeometry x="0.14" y="3" relative="1" as="geometry">
            <mxPoint x="-20" y="13" as="offset" />
          </mxGeometry>
        </mxCell>
        <mxCell id="IwvSkkofRuMbl7YpwzWf-47" value="q0" style="ellipse;whiteSpace=wrap;html=1;aspect=fixed;" parent="1" vertex="1">
          <mxGeometry x="80" y="600" width="40" height="40" as="geometry" />
        </mxCell>
        <mxCell id="IwvSkkofRuMbl7YpwzWf-61" style="rounded=0;orthogonalLoop=1;jettySize=auto;html=1;" parent="1" source="IwvSkkofRuMbl7YpwzWf-48" target="IwvSkkofRuMbl7YpwzWf-55" edge="1">
          <mxGeometry relative="1" as="geometry" />
        </mxCell>
        <mxCell id="IwvSkkofRuMbl7YpwzWf-48" value="q1" style="ellipse;whiteSpace=wrap;html=1;aspect=fixed;" parent="1" vertex="1">
          <mxGeometry x="200" y="420" width="40" height="40" as="geometry" />
        </mxCell>
        <mxCell id="IwvSkkofRuMbl7YpwzWf-62" style="rounded=0;orthogonalLoop=1;jettySize=auto;html=1;" parent="1" source="IwvSkkofRuMbl7YpwzWf-50" target="IwvSkkofRuMbl7YpwzWf-55" edge="1">
          <mxGeometry relative="1" as="geometry" />
        </mxCell>
        <mxCell id="IwvSkkofRuMbl7YpwzWf-50" value="q2" style="ellipse;whiteSpace=wrap;html=1;aspect=fixed;" parent="1" vertex="1">
          <mxGeometry x="200" y="520" width="40" height="40" as="geometry" />
        </mxCell>
        <mxCell id="IwvSkkofRuMbl7YpwzWf-60" style="rounded=0;orthogonalLoop=1;jettySize=auto;html=1;" parent="1" source="IwvSkkofRuMbl7YpwzWf-51" target="IwvSkkofRuMbl7YpwzWf-55" edge="1">
          <mxGeometry relative="1" as="geometry" />
        </mxCell>
        <mxCell id="IwvSkkofRuMbl7YpwzWf-51" value="q3" style="ellipse;whiteSpace=wrap;html=1;aspect=fixed;" parent="1" vertex="1">
          <mxGeometry x="200" y="680" width="40" height="40" as="geometry" />
        </mxCell>
        <mxCell id="IwvSkkofRuMbl7YpwzWf-55" value="q4" style="ellipse;whiteSpace=wrap;html=1;aspect=fixed;" parent="1" vertex="1">
          <mxGeometry x="320" y="600" width="40" height="40" as="geometry" />
        </mxCell>
        <mxCell id="IwvSkkofRuMbl7YpwzWf-64" value="shuffle_a" style="edgeLabel;html=1;align=center;verticalAlign=middle;resizable=0;points=[];" parent="1" vertex="1" connectable="0">
          <mxGeometry x="257.99961030678935" y="588.0035354437182" as="geometry" />
        </mxCell>
        <mxCell id="IwvSkkofRuMbl7YpwzWf-65" value="shuffle_b" style="edgeLabel;html=1;align=center;verticalAlign=middle;resizable=0;points=[];" parent="1" vertex="1" connectable="0">
          <mxGeometry x="159.99961030678935" y="530.0035354437182" as="geometry">
            <mxPoint x="145" y="-26" as="offset" />
          </mxGeometry>
        </mxCell>
        <mxCell id="IwvSkkofRuMbl7YpwzWf-66" value="sequence_b" style="edgeLabel;html=1;align=center;verticalAlign=middle;resizable=0;points=[];" parent="1" vertex="1" connectable="0">
          <mxGeometry x="299.99961030678935" y="675.0035354437182" as="geometry" />
        </mxCell>
        <mxCell id="IwvSkkofRuMbl7YpwzWf-71" value="shuffle_b" style="edgeLabel;html=1;align=center;verticalAlign=middle;resizable=0;points=[];" parent="1" vertex="1" connectable="0">
          <mxGeometry x="179.99961030678935" y="590.0035354437182" as="geometry">
            <mxPoint x="2" y="-2" as="offset" />
          </mxGeometry>
        </mxCell>
      </root>
    </mxGraphModel>
  </diagram>
</mxfile>
